<mxfile host="app.diagrams.net" agent="Mozilla/5.0 (Windows NT 10.0; Win64; x64) AppleWebKit/537.36 (KHTML, like Gecko) Chrome/133.0.0.0 Safari/537.36" version="26.0.16">
  <diagram name="Page-1" id="2YBvvXClWsGukQMizWep">
    <mxGraphModel dx="1050" dy="671" grid="1" gridSize="10" guides="1" tooltips="1" connect="1" arrows="1" fold="1" page="1" pageScale="1" pageWidth="1100" pageHeight="850" math="0" shadow="0">
      <root>
        <mxCell id="0" />
        <mxCell id="1" parent="0" />
        <mxCell id="aM9ryv3xv72pqoxQDRHE-1" value="user" style="shape=umlLifeline;perimeter=lifelinePerimeter;whiteSpace=wrap;html=1;container=0;dropTarget=0;collapsible=0;recursiveResize=0;outlineConnect=0;portConstraint=eastwest;newEdgeStyle={&quot;edgeStyle&quot;:&quot;elbowEdgeStyle&quot;,&quot;elbow&quot;:&quot;vertical&quot;,&quot;curved&quot;:0,&quot;rounded&quot;:0};" parent="1" vertex="1">
          <mxGeometry x="40" y="40" width="100" height="800" as="geometry" />
        </mxCell>
        <mxCell id="aM9ryv3xv72pqoxQDRHE-2" value="" style="html=1;points=[];perimeter=orthogonalPerimeter;outlineConnect=0;targetShapes=umlLifeline;portConstraint=eastwest;newEdgeStyle={&quot;edgeStyle&quot;:&quot;elbowEdgeStyle&quot;,&quot;elbow&quot;:&quot;vertical&quot;,&quot;curved&quot;:0,&quot;rounded&quot;:0};" parent="aM9ryv3xv72pqoxQDRHE-1" vertex="1">
          <mxGeometry x="45" y="70" width="10" height="690" as="geometry" />
        </mxCell>
        <mxCell id="aM9ryv3xv72pqoxQDRHE-3" value="user" style="html=1;verticalAlign=bottom;startArrow=oval;endArrow=block;startSize=8;edgeStyle=elbowEdgeStyle;elbow=vertical;curved=0;rounded=0;" parent="aM9ryv3xv72pqoxQDRHE-1" target="aM9ryv3xv72pqoxQDRHE-2" edge="1">
          <mxGeometry relative="1" as="geometry">
            <mxPoint x="-15" y="70" as="sourcePoint" />
          </mxGeometry>
        </mxCell>
        <mxCell id="aM9ryv3xv72pqoxQDRHE-5" value="Web Site" style="shape=umlLifeline;perimeter=lifelinePerimeter;whiteSpace=wrap;html=1;container=0;dropTarget=0;collapsible=0;recursiveResize=0;outlineConnect=0;portConstraint=eastwest;newEdgeStyle={&quot;edgeStyle&quot;:&quot;elbowEdgeStyle&quot;,&quot;elbow&quot;:&quot;vertical&quot;,&quot;curved&quot;:0,&quot;rounded&quot;:0};" parent="1" vertex="1">
          <mxGeometry x="240" y="40" width="100" height="800" as="geometry" />
        </mxCell>
        <mxCell id="aM9ryv3xv72pqoxQDRHE-6" value="" style="html=1;points=[];perimeter=orthogonalPerimeter;outlineConnect=0;targetShapes=umlLifeline;portConstraint=eastwest;newEdgeStyle={&quot;edgeStyle&quot;:&quot;elbowEdgeStyle&quot;,&quot;elbow&quot;:&quot;vertical&quot;,&quot;curved&quot;:0,&quot;rounded&quot;:0};" parent="aM9ryv3xv72pqoxQDRHE-5" vertex="1">
          <mxGeometry x="45" y="80" width="10" height="680" as="geometry" />
        </mxCell>
        <mxCell id="aM9ryv3xv72pqoxQDRHE-7" value="login" style="html=1;verticalAlign=bottom;endArrow=block;edgeStyle=elbowEdgeStyle;elbow=vertical;curved=0;rounded=0;" parent="1" source="aM9ryv3xv72pqoxQDRHE-2" target="aM9ryv3xv72pqoxQDRHE-6" edge="1">
          <mxGeometry relative="1" as="geometry">
            <mxPoint x="205" y="130" as="sourcePoint" />
            <Array as="points">
              <mxPoint x="190" y="120" />
            </Array>
          </mxGeometry>
        </mxCell>
        <mxCell id="fq2a0ycka5RLqUpBh8eE-1" value="Authentication" style="shape=umlLifeline;perimeter=lifelinePerimeter;whiteSpace=wrap;html=1;container=0;dropTarget=0;collapsible=0;recursiveResize=0;outlineConnect=0;portConstraint=eastwest;newEdgeStyle={&quot;edgeStyle&quot;:&quot;elbowEdgeStyle&quot;,&quot;elbow&quot;:&quot;vertical&quot;,&quot;curved&quot;:0,&quot;rounded&quot;:0};" vertex="1" parent="1">
          <mxGeometry x="440" y="40" width="100" height="800" as="geometry" />
        </mxCell>
        <mxCell id="fq2a0ycka5RLqUpBh8eE-2" value="" style="html=1;points=[];perimeter=orthogonalPerimeter;outlineConnect=0;targetShapes=umlLifeline;portConstraint=eastwest;newEdgeStyle={&quot;edgeStyle&quot;:&quot;elbowEdgeStyle&quot;,&quot;elbow&quot;:&quot;vertical&quot;,&quot;curved&quot;:0,&quot;rounded&quot;:0};" vertex="1" parent="fq2a0ycka5RLqUpBh8eE-1">
          <mxGeometry x="45" y="80" width="10" height="140" as="geometry" />
        </mxCell>
        <mxCell id="fq2a0ycka5RLqUpBh8eE-7" value="login request" style="html=1;verticalAlign=bottom;endArrow=block;edgeStyle=elbowEdgeStyle;elbow=vertical;curved=0;rounded=0;" edge="1" parent="1" source="aM9ryv3xv72pqoxQDRHE-6" target="fq2a0ycka5RLqUpBh8eE-2">
          <mxGeometry x="-0.1053" relative="1" as="geometry">
            <mxPoint x="300" y="130" as="sourcePoint" />
            <Array as="points">
              <mxPoint x="409.78" y="130" />
            </Array>
            <mxPoint x="479.5" y="130.00000000000006" as="targetPoint" />
            <mxPoint as="offset" />
          </mxGeometry>
        </mxCell>
        <mxCell id="fq2a0ycka5RLqUpBh8eE-8" value="Alt" style="shape=umlFrame;whiteSpace=wrap;html=1;pointerEvents=0;recursiveResize=0;container=1;collapsible=0;width=50;height=20;" vertex="1" parent="1">
          <mxGeometry x="60" y="135" width="630" height="110" as="geometry" />
        </mxCell>
        <mxCell id="fq2a0ycka5RLqUpBh8eE-12" value="[if user is registered ]" style="text;html=1;align=center;verticalAlign=middle;resizable=0;points=[];autosize=1;strokeColor=none;fillColor=none;fontSize=8;" vertex="1" parent="fq2a0ycka5RLqUpBh8eE-8">
          <mxGeometry x="230" width="100" height="20" as="geometry" />
        </mxCell>
        <mxCell id="fq2a0ycka5RLqUpBh8eE-17" value="[else]" style="text;html=1;align=center;verticalAlign=middle;resizable=0;points=[];autosize=1;strokeColor=none;fillColor=none;fontSize=8;" vertex="1" parent="fq2a0ycka5RLqUpBh8eE-8">
          <mxGeometry x="230" y="45" width="40" height="20" as="geometry" />
        </mxCell>
        <mxCell id="fq2a0ycka5RLqUpBh8eE-20" value="return register view" style="html=1;verticalAlign=bottom;endArrow=open;edgeStyle=elbowEdgeStyle;elbow=vertical;curved=0;rounded=0;dashed=1;endFill=0;" edge="1" parent="fq2a0ycka5RLqUpBh8eE-8">
          <mxGeometry x="0.15" relative="1" as="geometry">
            <mxPoint x="225.0000000000001" y="95.00111111111107" as="sourcePoint" />
            <Array as="points" />
            <mxPoint x="35" y="95.00111111111107" as="targetPoint" />
            <mxPoint as="offset" />
          </mxGeometry>
        </mxCell>
        <mxCell id="aM9ryv3xv72pqoxQDRHE-9" value="return ok" style="html=1;verticalAlign=bottom;endArrow=open;edgeStyle=elbowEdgeStyle;elbow=vertical;curved=0;rounded=0;dashed=1;endFill=0;" parent="1" source="fq2a0ycka5RLqUpBh8eE-2" target="aM9ryv3xv72pqoxQDRHE-6" edge="1">
          <mxGeometry x="0.15" relative="1" as="geometry">
            <mxPoint x="480" y="190" as="sourcePoint" />
            <Array as="points">
              <mxPoint x="390" y="170" />
            </Array>
            <mxPoint x="310" y="190" as="targetPoint" />
            <mxPoint as="offset" />
          </mxGeometry>
        </mxCell>
        <mxCell id="fq2a0ycka5RLqUpBh8eE-11" value="return register prompt" style="html=1;verticalAlign=bottom;endArrow=open;edgeStyle=elbowEdgeStyle;elbow=vertical;curved=0;rounded=0;dashed=1;endFill=0;" edge="1" parent="1" source="fq2a0ycka5RLqUpBh8eE-2" target="aM9ryv3xv72pqoxQDRHE-6">
          <mxGeometry x="0.15" relative="1" as="geometry">
            <mxPoint x="500" y="220" as="sourcePoint" />
            <Array as="points">
              <mxPoint x="450" y="220" />
            </Array>
            <mxPoint x="315" y="220" as="targetPoint" />
            <mxPoint as="offset" />
          </mxGeometry>
        </mxCell>
        <mxCell id="fq2a0ycka5RLqUpBh8eE-19" value="return Items view" style="html=1;verticalAlign=bottom;endArrow=open;edgeStyle=elbowEdgeStyle;elbow=vertical;curved=0;rounded=0;dashed=1;endFill=0;" edge="1" parent="1" source="aM9ryv3xv72pqoxQDRHE-6" target="aM9ryv3xv72pqoxQDRHE-2">
          <mxGeometry x="0.1491" relative="1" as="geometry">
            <mxPoint x="190" y="180" as="sourcePoint" />
            <Array as="points">
              <mxPoint x="240" y="180" />
            </Array>
            <mxPoint x="110" y="180" as="targetPoint" />
            <mxPoint as="offset" />
          </mxGeometry>
        </mxCell>
        <mxCell id="fq2a0ycka5RLqUpBh8eE-23" value="Database" style="shape=umlLifeline;perimeter=lifelinePerimeter;whiteSpace=wrap;html=1;container=0;dropTarget=0;collapsible=0;recursiveResize=0;outlineConnect=0;portConstraint=eastwest;newEdgeStyle={&quot;edgeStyle&quot;:&quot;elbowEdgeStyle&quot;,&quot;elbow&quot;:&quot;vertical&quot;,&quot;curved&quot;:0,&quot;rounded&quot;:0};" vertex="1" parent="1">
          <mxGeometry x="640" y="40" width="100" height="800" as="geometry" />
        </mxCell>
        <mxCell id="fq2a0ycka5RLqUpBh8eE-24" value="" style="html=1;points=[];perimeter=orthogonalPerimeter;outlineConnect=0;targetShapes=umlLifeline;portConstraint=eastwest;newEdgeStyle={&quot;edgeStyle&quot;:&quot;elbowEdgeStyle&quot;,&quot;elbow&quot;:&quot;vertical&quot;,&quot;curved&quot;:0,&quot;rounded&quot;:0};" vertex="1" parent="fq2a0ycka5RLqUpBh8eE-23">
          <mxGeometry x="45" y="80" width="10" height="680" as="geometry" />
        </mxCell>
        <mxCell id="fq2a0ycka5RLqUpBh8eE-25" value="quey select (user info)" style="html=1;verticalAlign=bottom;endArrow=block;edgeStyle=elbowEdgeStyle;elbow=vertical;curved=0;rounded=0;" edge="1" parent="1" source="fq2a0ycka5RLqUpBh8eE-2" target="fq2a0ycka5RLqUpBh8eE-24">
          <mxGeometry relative="1" as="geometry">
            <mxPoint x="520" y="160" as="sourcePoint" />
            <Array as="points">
              <mxPoint x="580" y="170" />
            </Array>
            <mxPoint x="680" y="160" as="targetPoint" />
          </mxGeometry>
        </mxCell>
        <mxCell id="fq2a0ycka5RLqUpBh8eE-26" value="respone if data is found" style="html=1;verticalAlign=bottom;endArrow=open;edgeStyle=elbowEdgeStyle;elbow=vertical;curved=0;rounded=0;dashed=1;endFill=0;" edge="1" parent="1" source="fq2a0ycka5RLqUpBh8eE-24" target="fq2a0ycka5RLqUpBh8eE-2">
          <mxGeometry relative="1" as="geometry">
            <mxPoint x="645" y="200" as="sourcePoint" />
            <Array as="points">
              <mxPoint x="610" y="220" />
            </Array>
            <mxPoint x="500" y="200" as="targetPoint" />
            <mxPoint as="offset" />
          </mxGeometry>
        </mxCell>
        <mxCell id="fq2a0ycka5RLqUpBh8eE-27" value="adds item" style="html=1;verticalAlign=bottom;endArrow=block;edgeStyle=elbowEdgeStyle;elbow=vertical;curved=0;rounded=0;" edge="1" parent="1">
          <mxGeometry relative="1" as="geometry">
            <mxPoint x="95" y="280" as="sourcePoint" />
            <Array as="points">
              <mxPoint x="220" y="280" />
            </Array>
            <mxPoint x="285" y="280" as="targetPoint" />
          </mxGeometry>
        </mxCell>
        <mxCell id="fq2a0ycka5RLqUpBh8eE-28" value="query insert" style="html=1;verticalAlign=bottom;endArrow=block;edgeStyle=elbowEdgeStyle;elbow=vertical;curved=0;rounded=0;" edge="1" parent="1">
          <mxGeometry x="0.359" relative="1" as="geometry">
            <mxPoint x="295" y="290" as="sourcePoint" />
            <Array as="points">
              <mxPoint x="440" y="290" />
            </Array>
            <mxPoint x="685" y="290" as="targetPoint" />
            <mxPoint as="offset" />
          </mxGeometry>
        </mxCell>
        <mxCell id="fq2a0ycka5RLqUpBh8eE-29" value="return ok" style="html=1;verticalAlign=bottom;endArrow=open;edgeStyle=elbowEdgeStyle;elbow=vertical;curved=0;rounded=0;dashed=1;endFill=0;" edge="1" parent="1">
          <mxGeometry x="-0.359" relative="1" as="geometry">
            <mxPoint x="685" y="320" as="sourcePoint" />
            <Array as="points">
              <mxPoint x="440" y="320" />
            </Array>
            <mxPoint x="295" y="320" as="targetPoint" />
            <mxPoint as="offset" />
          </mxGeometry>
        </mxCell>
        <mxCell id="fq2a0ycka5RLqUpBh8eE-30" value="updates item" style="html=1;verticalAlign=bottom;endArrow=block;edgeStyle=elbowEdgeStyle;elbow=vertical;curved=0;rounded=0;" edge="1" parent="1">
          <mxGeometry relative="1" as="geometry">
            <mxPoint x="95" y="360" as="sourcePoint" />
            <Array as="points">
              <mxPoint x="225" y="360" />
            </Array>
            <mxPoint x="285" y="360" as="targetPoint" />
          </mxGeometry>
        </mxCell>
        <mxCell id="fq2a0ycka5RLqUpBh8eE-31" value="query update" style="html=1;verticalAlign=bottom;endArrow=block;edgeStyle=elbowEdgeStyle;elbow=vertical;curved=0;rounded=0;" edge="1" parent="1">
          <mxGeometry x="0.3591" relative="1" as="geometry">
            <mxPoint x="295" y="370" as="sourcePoint" />
            <Array as="points">
              <mxPoint x="445" y="370" />
            </Array>
            <mxPoint x="685" y="370" as="targetPoint" />
            <mxPoint as="offset" />
          </mxGeometry>
        </mxCell>
        <mxCell id="fq2a0ycka5RLqUpBh8eE-32" value="return ok" style="html=1;verticalAlign=bottom;endArrow=open;edgeStyle=elbowEdgeStyle;elbow=vertical;curved=0;rounded=0;dashed=1;endFill=0;" edge="1" parent="1">
          <mxGeometry x="-0.359" relative="1" as="geometry">
            <mxPoint x="685" y="400" as="sourcePoint" />
            <Array as="points">
              <mxPoint x="445" y="400" />
            </Array>
            <mxPoint x="295" y="400" as="targetPoint" />
            <mxPoint as="offset" />
          </mxGeometry>
        </mxCell>
        <mxCell id="fq2a0ycka5RLqUpBh8eE-33" value="remove item" style="html=1;verticalAlign=bottom;endArrow=block;edgeStyle=elbowEdgeStyle;elbow=vertical;curved=0;rounded=0;" edge="1" parent="1">
          <mxGeometry relative="1" as="geometry">
            <mxPoint x="95" y="440" as="sourcePoint" />
            <Array as="points">
              <mxPoint x="215" y="440" />
            </Array>
            <mxPoint x="285" y="440" as="targetPoint" />
          </mxGeometry>
        </mxCell>
        <mxCell id="fq2a0ycka5RLqUpBh8eE-34" value="query delete" style="html=1;verticalAlign=bottom;endArrow=block;edgeStyle=elbowEdgeStyle;elbow=vertical;curved=0;rounded=0;" edge="1" parent="1">
          <mxGeometry x="0.359" relative="1" as="geometry">
            <mxPoint x="295" y="450" as="sourcePoint" />
            <Array as="points">
              <mxPoint x="435" y="450" />
            </Array>
            <mxPoint x="685" y="450" as="targetPoint" />
            <mxPoint as="offset" />
          </mxGeometry>
        </mxCell>
        <mxCell id="fq2a0ycka5RLqUpBh8eE-35" value="return ok" style="html=1;verticalAlign=bottom;endArrow=open;edgeStyle=elbowEdgeStyle;elbow=vertical;curved=0;rounded=0;dashed=1;endFill=0;" edge="1" parent="1">
          <mxGeometry x="-0.359" relative="1" as="geometry">
            <mxPoint x="685" y="480" as="sourcePoint" />
            <Array as="points">
              <mxPoint x="435" y="480" />
            </Array>
            <mxPoint x="295" y="480" as="targetPoint" />
            <mxPoint as="offset" />
          </mxGeometry>
        </mxCell>
        <mxCell id="fq2a0ycka5RLqUpBh8eE-36" value="create new transaction" style="html=1;verticalAlign=bottom;endArrow=block;edgeStyle=elbowEdgeStyle;elbow=vertical;curved=0;rounded=0;" edge="1" parent="1">
          <mxGeometry relative="1" as="geometry">
            <mxPoint x="95" y="520" as="sourcePoint" />
            <Array as="points">
              <mxPoint x="225" y="520" />
            </Array>
            <mxPoint x="285" y="520" as="targetPoint" />
            <mxPoint as="offset" />
          </mxGeometry>
        </mxCell>
        <mxCell id="fq2a0ycka5RLqUpBh8eE-37" value="query insert" style="html=1;verticalAlign=bottom;endArrow=block;edgeStyle=elbowEdgeStyle;elbow=vertical;curved=0;rounded=0;" edge="1" parent="1">
          <mxGeometry x="0.359" relative="1" as="geometry">
            <mxPoint x="295" y="530" as="sourcePoint" />
            <Array as="points">
              <mxPoint x="445" y="530" />
            </Array>
            <mxPoint x="685" y="530" as="targetPoint" />
            <mxPoint as="offset" />
          </mxGeometry>
        </mxCell>
        <mxCell id="fq2a0ycka5RLqUpBh8eE-38" value="return ok" style="html=1;verticalAlign=bottom;endArrow=open;edgeStyle=elbowEdgeStyle;elbow=vertical;curved=0;rounded=0;dashed=1;endFill=0;" edge="1" parent="1">
          <mxGeometry x="-0.359" relative="1" as="geometry">
            <mxPoint x="685" y="560" as="sourcePoint" />
            <Array as="points">
              <mxPoint x="445" y="560" />
            </Array>
            <mxPoint x="295" y="560" as="targetPoint" />
            <mxPoint as="offset" />
          </mxGeometry>
        </mxCell>
        <mxCell id="fq2a0ycka5RLqUpBh8eE-39" value="update transaction" style="html=1;verticalAlign=bottom;endArrow=block;edgeStyle=elbowEdgeStyle;elbow=vertical;curved=0;rounded=0;" edge="1" parent="1" source="aM9ryv3xv72pqoxQDRHE-2" target="aM9ryv3xv72pqoxQDRHE-6">
          <mxGeometry relative="1" as="geometry">
            <mxPoint x="110" y="600" as="sourcePoint" />
            <Array as="points">
              <mxPoint x="230" y="600" />
            </Array>
            <mxPoint x="280" y="600" as="targetPoint" />
            <mxPoint as="offset" />
          </mxGeometry>
        </mxCell>
        <mxCell id="fq2a0ycka5RLqUpBh8eE-40" value="query update" style="html=1;verticalAlign=bottom;endArrow=block;edgeStyle=elbowEdgeStyle;elbow=vertical;curved=0;rounded=0;" edge="1" parent="1" source="aM9ryv3xv72pqoxQDRHE-6" target="fq2a0ycka5RLqUpBh8eE-24">
          <mxGeometry x="0.359" relative="1" as="geometry">
            <mxPoint x="320" y="610" as="sourcePoint" />
            <Array as="points">
              <mxPoint x="450" y="610" />
            </Array>
            <mxPoint x="670" y="610" as="targetPoint" />
            <mxPoint as="offset" />
          </mxGeometry>
        </mxCell>
        <mxCell id="fq2a0ycka5RLqUpBh8eE-41" value="return ok" style="html=1;verticalAlign=bottom;endArrow=open;edgeStyle=elbowEdgeStyle;elbow=vertical;curved=0;rounded=0;dashed=1;endFill=0;" edge="1" parent="1" source="fq2a0ycka5RLqUpBh8eE-24" target="aM9ryv3xv72pqoxQDRHE-6">
          <mxGeometry x="-0.359" relative="1" as="geometry">
            <mxPoint x="670" y="640" as="sourcePoint" />
            <Array as="points">
              <mxPoint x="450" y="640" />
            </Array>
            <mxPoint x="310" y="640" as="targetPoint" />
            <mxPoint as="offset" />
          </mxGeometry>
        </mxCell>
        <mxCell id="fq2a0ycka5RLqUpBh8eE-42" value="remove transaction" style="html=1;verticalAlign=bottom;endArrow=block;edgeStyle=elbowEdgeStyle;elbow=vertical;curved=0;rounded=0;" edge="1" parent="1" source="aM9ryv3xv72pqoxQDRHE-2" target="aM9ryv3xv72pqoxQDRHE-6">
          <mxGeometry relative="1" as="geometry">
            <mxPoint x="130" y="680" as="sourcePoint" />
            <Array as="points">
              <mxPoint x="210" y="680" />
            </Array>
            <mxPoint x="270" y="680" as="targetPoint" />
            <mxPoint as="offset" />
          </mxGeometry>
        </mxCell>
        <mxCell id="fq2a0ycka5RLqUpBh8eE-43" value="query delete" style="html=1;verticalAlign=bottom;endArrow=block;edgeStyle=elbowEdgeStyle;elbow=vertical;curved=0;rounded=0;" edge="1" parent="1" source="aM9ryv3xv72pqoxQDRHE-6" target="fq2a0ycka5RLqUpBh8eE-24">
          <mxGeometry x="0.359" relative="1" as="geometry">
            <mxPoint x="320" y="690" as="sourcePoint" />
            <Array as="points">
              <mxPoint x="430" y="690" />
            </Array>
            <mxPoint x="670" y="690" as="targetPoint" />
            <mxPoint as="offset" />
          </mxGeometry>
        </mxCell>
        <mxCell id="fq2a0ycka5RLqUpBh8eE-44" value="return ok" style="html=1;verticalAlign=bottom;endArrow=open;edgeStyle=elbowEdgeStyle;elbow=vertical;curved=0;rounded=0;dashed=1;endFill=0;" edge="1" parent="1" source="fq2a0ycka5RLqUpBh8eE-24" target="aM9ryv3xv72pqoxQDRHE-6">
          <mxGeometry x="-0.359" relative="1" as="geometry">
            <mxPoint x="670" y="720" as="sourcePoint" />
            <Array as="points">
              <mxPoint x="430" y="720" />
            </Array>
            <mxPoint x="330" y="720" as="targetPoint" />
            <mxPoint as="offset" />
          </mxGeometry>
        </mxCell>
      </root>
    </mxGraphModel>
  </diagram>
</mxfile>
